<svg height="200" version="1.1" width="200" xmlns="http://www.w3.org/2000/svg" xmlns:xlink="http://www.w3.org/1999/xlink" style="overflow: hidden; position: relative;" viewBox="162.953125 89.60000000000001 285.09375 237.53279999999995"><desc style="-webkit-tap-highlight-color: rgba(0, 0, 0, 0);">Created with Logotizer</desc><defs style="-webkit-tap-highlight-color: rgba(0, 0, 0, 0);"><linearGradient id="gradient_tvuljzh03nkzwlotfqgwxo" x1="1.8369701987210297e-16" y1="0" x2="0" y2="1" style="-webkit-tap-highlight-color: rgba(0, 0, 0, 0);"><stop offset="10%" stop-color="#d7ffca" stop-opacity="1" style="-webkit-tap-highlight-color: rgba(0, 0, 0, 0);"></stop><stop offset="80%" stop-color="#09ba3a" stop-opacity="1" style="-webkit-tap-highlight-color: rgba(0, 0, 0, 0);"></stop></linearGradient></defs><path fill="#2bb83f" stroke="none" d="M-139.52,-2.74L-139.52,-30.38Q-139.52,-31.78,-138.41,-32.81Q-137.3,-33.84,-135.77,-33.84L-128.72,-33.84Q-126.09,-33.84,-124,-33.23Q-121.9,-32.63,-120.52,-31.58Q-119.13,-30.54,-118.21,-29.09Q-117.28,-27.63,-116.88,-26.04Q-116.48,-24.45,-116.48,-22.62Q-116.48,-17.37,-119.78,-14.45Q-123.07,-11.53,-128.72,-11.53L-132.8,-11.53L-132.8,-2.74Q-132.8,-1.48,-133.8,-0.53Q-134.81,0.42,-136.17,0.42Q-137.51,0.42,-138.52,-0.52Q-139.52,-1.45,-139.52,-2.74M-132.8,-17.63L-128.72,-17.63Q-123.21,-17.63,-123.21,-22.66Q-123.21,-27.75,-128.72,-27.75L-132.8,-27.75L-132.8,-17.63ZM-113.18,-20.98Q-113.18,-22.24,-112.22,-23.05Q-111.26,-23.86,-109.92,-23.86Q-108.54,-23.86,-107.37,-22.36Q-103.85,-24.42,-101.41,-24.42Q-97.48,-24.42,-97.48,-21.56Q-97.48,-20.16,-98.46,-19.31Q-99.38,-18.52,-100.64,-18.54Q-100.73,-18.54,-100.85,-18.54Q-101.74,-18.61,-102.47,-18.61Q-102.91,-18.61,-103.29,-18.59Q-104.3,-18.52,-105.45,-18.05Q-105.35,-17.39,-105.35,-17.13L-105.35,-2.65Q-105.35,-1.38,-106.3,-0.53Q-107.25,0.33,-108.66,0.33Q-110.06,0.33,-111.02,-0.53Q-111.98,-1.38,-111.98,-2.65L-111.98,-17.13Q-111.98,-18.59,-112.5,-19.38Q-113.18,-20.23,-113.18,-20.98ZM-94.71,-8.6L-94.71,-15.75Q-94.71,-19.69,-91.97,-22.18Q-89.23,-24.68,-84.28,-24.68Q-79.34,-24.68,-76.61,-22.18Q-73.88,-19.69,-73.88,-15.75L-73.88,-8.6Q-73.88,-4.66,-76.61,-2.17Q-79.34,0.33,-84.28,0.33Q-89.23,0.33,-91.97,-2.17Q-94.71,-4.66,-94.71,-8.6M-88.08,-8.6Q-88.08,-7.05,-87.09,-6.19Q-86.11,-5.32,-84.28,-5.32Q-82.45,-5.32,-81.48,-6.19Q-80.51,-7.05,-80.51,-8.6L-80.51,-15.8Q-80.51,-17.3,-81.48,-18.15Q-82.45,-19.01,-84.28,-19.01Q-86.11,-19.01,-87.09,-18.15Q-88.08,-17.3,-88.08,-15.8L-88.08,-8.6ZM-73.69,7.64Q-73.83,7.17,-73.83,6.75Q-73.83,5.88,-73.27,5.3Q-72.4,4.38,-71.18,4.17Q-68.2,3.63,-68.2,0.47L-68.2,-21.56Q-68.2,-22.76,-67.25,-23.61Q-66.3,-24.47,-64.9,-24.47Q-63.49,-24.47,-62.54,-23.61Q-61.59,-22.76,-61.59,-21.56L-61.59,0.33Q-61.59,4.52,-64.07,7.09Q-66.54,9.66,-70.71,9.66Q-71.81,9.66,-72.62,9.11Q-73.43,8.55,-73.69,7.64M-68.65,-30.91Q-68.65,-32.32,-67.56,-33.29Q-66.47,-34.27,-64.9,-34.27Q-63.33,-34.27,-62.24,-33.28Q-61.15,-32.3,-61.15,-30.91Q-61.15,-29.51,-62.24,-28.54Q-63.33,-27.56,-64.9,-27.56Q-66.47,-27.56,-67.56,-28.55Q-68.65,-29.53,-68.65,-30.91ZM-55.9,-8.06L-55.9,-16.08Q-55.9,-19.85,-53.21,-22.24Q-50.53,-24.63,-45.68,-24.63Q-41.09,-24.63,-38.67,-22.42Q-36.26,-20.2,-36.26,-16.45Q-36.26,-9.16,-45.59,-9.16Q-47.18,-9.16,-49.27,-9.45L-49.27,-7.88Q-49.27,-6.61,-48.29,-5.89Q-47.32,-5.18,-45.42,-5.18Q-43.5,-5.18,-41.11,-6.23Q-40.5,-6.54,-39.68,-6.54Q-38.13,-6.54,-37.42,-5.72Q-36.7,-4.9,-36.7,-3.89Q-36.7,-2.72,-37.69,-1.84Q-38.67,-0.96,-40.2,-0.52Q-41.72,-0.07,-43.16,0.13Q-44.6,0.33,-45.91,0.33Q-50.55,0.33,-53.23,-2.03Q-55.9,-4.38,-55.9,-8.06M-49.27,-14.3Q-47.2,-14.11,-45.82,-14.11Q-44.37,-14.11,-43.61,-14.72Q-42.84,-15.33,-42.84,-16.8Q-42.84,-18.21,-43.56,-18.84Q-44.27,-19.48,-45.73,-19.48Q-47.44,-19.48,-48.35,-18.64Q-49.27,-17.81,-49.27,-16.36L-49.27,-14.3ZM-32.63,-8.84L-32.63,-15.3Q-32.63,-19.38,-30.12,-21.93Q-27.61,-24.47,-22.69,-24.47Q-21.42,-24.47,-20.17,-24.29Q-18.91,-24.12,-17.55,-23.71Q-16.2,-23.3,-15.34,-22.42Q-14.48,-21.54,-14.48,-20.3Q-14.48,-19.27,-15.15,-18.56Q-15.82,-17.86,-17.46,-17.86Q-18.21,-17.86,-19.03,-18.14Q-19.2,-18.21,-19.59,-18.36Q-19.99,-18.52,-20.21,-18.6Q-20.44,-18.68,-20.79,-18.77Q-21.14,-18.87,-21.52,-18.91Q-21.89,-18.96,-22.31,-18.96Q-25.99,-18.96,-25.99,-15.3L-25.99,-8.84Q-25.99,-5.18,-22.31,-5.18Q-21.89,-5.18,-21.53,-5.21Q-21.16,-5.25,-20.77,-5.37Q-20.37,-5.48,-20.2,-5.54Q-20.04,-5.6,-19.57,-5.79Q-19.1,-5.98,-19.03,-6Q-18.33,-6.28,-17.55,-6.28Q-15.87,-6.28,-15.18,-5.57Q-14.48,-4.85,-14.48,-3.84Q-14.48,-2.86,-15.07,-2.1Q-15.66,-1.34,-16.55,-0.89Q-17.44,-0.45,-18.6,-0.15Q-19.76,0.14,-20.75,0.23Q-21.75,0.33,-22.73,0.33Q-25.22,0.33,-27.13,-0.38Q-29.04,-1.08,-30.22,-2.33Q-31.41,-3.59,-32.02,-5.23Q-32.63,-6.87,-32.63,-8.84ZM-10.45,-9.98L-10.45,-28.62Q-10.45,-29.88,-9.57,-30.71Q-8.7,-31.55,-7.15,-31.55Q-5.63,-31.55,-4.72,-30.7Q-3.82,-29.86,-3.82,-28.62L-3.82,-23.27L-0.28,-23.27Q1.05,-23.27,1.97,-22.44Q2.88,-21.61,2.88,-20.39Q2.88,-19.17,1.97,-18.38Q1.05,-17.58,-0.28,-17.58L-3.82,-17.58L-3.82,-10.31Q-3.82,-7.48,-3.35,-6.5Q-2.88,-5.53,-1.24,-5.53Q-0.98,-5.53,-0.7,-5.55L-0.42,-5.58Q1.78,-5.58,2.65,-4.97Q3.52,-4.36,3.52,-2.98Q3.52,-1.97,3.15,-1.31Q2.79,-0.66,2.09,-0.34Q1.38,-0.02,0.66,0.08Q-0.07,0.19,-1.1,0.19Q-3.3,0.19,-4.92,-0.26Q-6.54,-0.7,-7.61,-1.5Q-8.67,-2.3,-9.3,-3.59Q-9.94,-4.88,-10.2,-6.41Q-10.45,-7.95,-10.45,-9.98ZM18.91,-30.77Q18.91,-31.85,19.92,-32.85Q20.93,-33.84,22.27,-33.84L39.16,-33.84Q40.5,-33.84,41.53,-32.94Q42.56,-32.04,42.56,-30.77Q42.56,-29.55,41.55,-28.65Q40.55,-27.75,39.16,-27.75L34.08,-27.75L34.08,-2.65Q34.08,-1.41,33.08,-0.49Q32.09,0.42,30.73,0.42Q29.34,0.42,28.35,-0.49Q27.35,-1.41,27.35,-2.65L27.35,-27.75L22.27,-27.75Q20.84,-27.75,19.88,-28.64Q18.91,-29.53,18.91,-30.77ZM46.36,-30.91Q46.36,-32.32,47.45,-33.29Q48.54,-34.27,50.11,-34.27Q51.68,-34.27,52.77,-33.28Q53.86,-32.3,53.86,-30.91Q53.86,-29.51,52.77,-28.54Q51.68,-27.56,50.11,-27.56Q48.54,-27.56,47.45,-28.55Q46.36,-29.53,46.36,-30.91M46.8,-2.65L46.8,-21.56Q46.8,-22.76,47.75,-23.61Q48.7,-24.47,50.11,-24.47Q51.52,-24.47,52.46,-23.61Q53.41,-22.76,53.41,-21.56L53.41,-2.65Q53.41,-1.38,52.46,-0.53Q51.52,0.33,50.11,0.33Q48.7,0.33,47.75,-0.53Q46.8,-1.38,46.8,-2.65ZM59.11,-8.84L59.11,-15.3Q59.11,-19.38,61.62,-21.93Q64.13,-24.47,69.05,-24.47Q70.31,-24.47,71.57,-24.29Q72.82,-24.12,74.18,-23.71Q75.54,-23.3,76.39,-22.42Q77.25,-21.54,77.25,-20.3Q77.25,-19.27,76.58,-18.56Q75.91,-17.86,74.27,-17.86Q73.52,-17.86,72.7,-18.14Q72.54,-18.21,72.14,-18.36Q71.74,-18.52,71.52,-18.6Q71.3,-18.68,70.95,-18.77Q70.59,-18.87,70.22,-18.91Q69.84,-18.96,69.42,-18.96Q65.74,-18.96,65.74,-15.3L65.74,-8.84Q65.74,-5.18,69.42,-5.18Q69.84,-5.18,70.21,-5.21Q70.57,-5.25,70.97,-5.37Q71.37,-5.48,71.53,-5.54Q71.7,-5.6,72.16,-5.79Q72.63,-5.98,72.7,-6Q73.41,-6.28,74.18,-6.28Q75.87,-6.28,76.56,-5.57Q77.25,-4.85,77.25,-3.84Q77.25,-2.86,76.66,-2.1Q76.08,-1.34,75.19,-0.89Q74.3,-0.45,73.14,-0.15Q71.98,0.14,70.98,0.23Q69.98,0.33,69,0.33Q66.52,0.33,64.61,-0.38Q62.7,-1.08,61.51,-2.33Q60.33,-3.59,59.72,-5.23Q59.11,-6.87,59.11,-8.84ZM81.28,-2.65L81.28,-31.69Q81.28,-32.95,82.23,-33.81Q83.18,-34.66,84.59,-34.66Q85.99,-34.66,86.95,-33.81Q87.91,-32.95,87.91,-31.69L87.91,-16.45L94.52,-23.63Q95.32,-24.42,96.8,-24.42Q98.18,-24.42,99.09,-23.63Q100.01,-22.83,100.01,-21.61Q100.01,-20.44,99.09,-19.59L99.14,-19.59L93.28,-13.38L100.34,-4.08Q100.88,-3.3,100.88,-2.3Q100.8,-1.1,99.89,-0.39Q98.98,0.33,97.64,0.33Q95.91,0.33,94.92,-1.01L88.43,-9.8L87.91,-9.3L87.91,-2.65Q87.91,-1.38,86.95,-0.53Q85.99,0.33,84.59,0.33Q83.18,0.33,82.23,-0.53Q81.28,-1.38,81.28,-2.65ZM103.73,-8.06L103.73,-16.08Q103.73,-19.85,106.42,-22.24Q109.1,-24.63,113.95,-24.63Q118.55,-24.63,120.96,-22.42Q123.38,-20.2,123.38,-16.45Q123.38,-9.16,114.05,-9.16Q112.45,-9.16,110.37,-9.45L110.37,-7.88Q110.37,-6.61,111.34,-5.89Q112.31,-5.18,114.21,-5.18Q116.13,-5.18,118.52,-6.23Q119.13,-6.54,119.95,-6.54Q121.5,-6.54,122.21,-5.72Q122.93,-4.9,122.93,-3.89Q122.93,-2.72,121.95,-1.84Q120.96,-0.96,119.44,-0.52Q117.91,-0.07,116.47,0.13Q115.03,0.33,113.72,0.33Q109.08,0.33,106.41,-2.03Q103.73,-4.38,103.73,-8.06M110.37,-14.3Q112.43,-14.11,113.81,-14.11Q115.27,-14.11,116.03,-14.72Q116.79,-15.33,116.79,-16.8Q116.79,-18.21,116.07,-18.84Q115.36,-19.48,113.91,-19.48Q112.2,-19.48,111.28,-18.64Q110.37,-17.81,110.37,-16.36L110.37,-14.3ZM127.78,-9.98L127.78,-28.62Q127.78,-29.88,128.66,-30.71Q129.54,-31.55,131.09,-31.55Q132.61,-31.55,133.51,-30.7Q134.41,-29.86,134.41,-28.62L134.41,-23.27L137.95,-23.27Q139.29,-23.27,140.2,-22.44Q141.12,-21.61,141.12,-20.39Q141.12,-19.17,140.2,-18.38Q139.29,-17.58,137.95,-17.58L134.41,-17.58L134.41,-10.31Q134.41,-7.48,134.88,-6.5Q135.35,-5.53,136.99,-5.53Q137.25,-5.53,137.53,-5.55L137.81,-5.58Q140.02,-5.58,140.88,-4.97Q141.75,-4.36,141.75,-2.98Q141.75,-1.97,141.39,-1.31Q141.02,-0.66,140.32,-0.34Q139.62,-0.02,138.89,0.08Q138.16,0.19,137.13,0.19Q134.93,0.19,133.31,-0.26Q131.7,-0.7,130.63,-1.5Q129.56,-2.3,128.93,-3.59Q128.3,-4.88,128.04,-6.41Q127.78,-7.95,127.78,-9.98Z" transform="matrix(1,0,0,1,305.5,314.1328)" style="-webkit-tap-highlight-color: rgba(0, 0, 0, 0);" stroke-width="1"></path><path fill="#2bb83f" stroke="none" d="M128.115,69.916C128.198,69.666,128.28300000000002,69.39099999999999,128.368,69.095A16.124,16.124,0,0,0,128.897,61.897C128.134,57.576,125.19399999999999,54.407,119.797,53.012A9.947,9.947,0,0,0,117.932,45.015L117.852,44.912A12.575,12.575,0,0,0,114.42,42.065A11.294,11.294,0,0,0,105.074,41.391999999999996Q104.917,41.44499999999999,104.771,41.498A10.39,10.39,0,0,0,103.673,38.93C101.825,35.85,98.501,34,93.576,34C88.649,34,85.329,35.851,83.488,38.932A10.519,10.519,0,0,0,82.21,42.286A8.591,8.591,0,0,0,82.02499999999999,43.886L82.02799999999999,109.08699999999999A10.44,10.44,0,0,0,82.01499999999999,109.371A24.248,24.248,0,0,0,83.03399999999999,117.28399999999999C84.702,122.642,88.27799999999999,125.99999999999999,94.08599999999998,125.99999999999999C100.37299999999999,125.99999999999999,103.84299999999999,123.25199999999998,104.81099999999998,118.76699999999998L104.88099999999997,118.77999999999999A14.526,14.526,0,0,0,112.00499999999997,118.35899999999998A11.296,11.296,0,0,0,119.11999999999996,111.17899999999997A11.03,11.03,0,0,0,119.86399999999996,106.91899999999997C124.84099999999997,105.28699999999996,127.77399999999996,102.37299999999996,128.88299999999995,98.56899999999997A14.486,14.486,0,0,0,128.76299999999995,90.64399999999998C128.66299999999995,90.28399999999998,128.56299999999996,89.95999999999998,128.46799999999996,89.67899999999997C135.60799999999995,85.23799999999997,136.19699999999997,73.42699999999998,128.11499999999995,69.91599999999997ZM121.78500000000001,88.41A1.484,1.484,0,1,0,121.665,91.375A12.646,12.646,0,0,0,125.70200000000001,90.908Q125.77900000000001,91.152,125.85300000000001,91.421A11.681,11.681,0,0,1,125.98400000000001,97.751C125.182,100.507,123.09400000000001,102.64500000000001,119.278,103.979A10.803,10.803,0,0,0,115.25200000000001,99.01C111.83600000000001,96.608,107.156,95.712,104.08000000000001,96.923A16.253,16.253,0,0,1,96.046,98.2C93.587,97.77,92.38900000000001,96.25500000000001,92.57600000000001,92.943C92.74600000000001,89.938,94.22600000000001,88.709,96.936,88.53999999999999A13.41,13.41,0,0,1,100.72800000000001,88.91999999999999A16.272,16.272,0,0,1,102.114,89.30899999999998A1.514,1.514,0,0,0,104.046,88.42099999999998A1.478,1.478,0,0,0,103.14500000000001,86.51899999999998A18.158,18.158,0,0,0,96.745,85.57799999999997C92.613,85.83599999999997,89.827,88.14799999999997,89.565,92.77799999999998C89.295,97.57899999999998,91.548,100.42799999999998,95.518,101.12199999999997A19.02,19.02,0,0,0,105.199,99.67899999999997C107.237,98.87699999999997,110.862,99.57099999999997,113.499,101.42499999999997C116.493,103.52999999999997,117.64099999999999,106.54699999999997,116.291,110.15399999999997A8.32,8.32,0,0,1,111.036,115.54899999999996A11.58,11.58,0,0,1,105.411,115.85899999999997Q105.238,115.82799999999996,105.09400000000001,115.79899999999996A23.239,23.239,0,0,0,103.52400000000002,108.12899999999996A1.516,1.516,0,0,0,101.55900000000001,107.31399999999996A1.476,1.476,0,0,0,100.73000000000002,109.24699999999997C100.76600000000002,109.33399999999997,100.83600000000001,109.51699999999997,100.93000000000002,109.78399999999998C101.09000000000002,110.23799999999997,101.25000000000001,110.74999999999997,101.40000000000002,111.30399999999997A17.28,17.28,0,0,1,102.06600000000002,116.53299999999997C101.86600000000001,120.71699999999997,99.62400000000002,123.03299999999997,94.08600000000001,123.03299999999997C89.78000000000002,123.03299999999997,87.23200000000001,120.63999999999997,85.91600000000001,116.41499999999998A20.423,20.423,0,0,1,85.108,112.12199999999997A22.264,22.264,0,0,1,85.028,109.47399999999998L85.04100000000001,109.18299999999998V43.885A5.888,5.888,0,0,1,85.16900000000001,42.857A7.613,7.613,0,0,1,86.08700000000002,40.437C87.38400000000001,38.266999999999996,89.71300000000002,36.967,93.57600000000002,36.967S99.77400000000003,38.266999999999996,101.07700000000003,40.439A7.639,7.639,0,0,1,102.00200000000002,42.861A5.9,5.9,0,0,1,102.13300000000002,43.888A13.133,13.133,0,0,1,102.07000000000002,46.104A11.894,11.894,0,0,1,101.28300000000002,49.277C100.04900000000002,52.283,97.64700000000002,54.097,93.51500000000001,54.281A1.484,1.484,0,1,0,93.65200000000002,57.245999999999995C99.01000000000002,57.00599999999999,102.41800000000002,54.431999999999995,104.07800000000002,50.388A15.056,15.056,0,0,0,105.17400000000002,44.542A9.392,9.392,0,0,1,106.05400000000002,44.199A8.323,8.323,0,0,1,112.94000000000001,44.650999999999996A9.544,9.544,0,0,1,115.507,46.779999999999994C118.065,50.398999999999994,117.066,54.309999999999995,113.656,58.288999999999994A23.306,23.306,0,0,1,111.308,60.651999999999994A20.323,20.323,0,0,1,110.27600000000001,61.49499999999999A1.469,1.469,0,0,0,109.96000000000001,63.56999999999999A1.524,1.524,0,0,0,112.069,63.88199999999999C112.33,63.69199999999999,112.763,63.349999999999994,113.309,62.87199999999999A26.261,26.261,0,0,0,115.96,60.20199999999999A19.377,19.377,0,0,0,118.854,55.83699999999999C123.228,56.91299999999999,125.358,59.18699999999999,125.926,62.40499999999999A13.33,13.33,0,0,1,125.465,68.29199999999999C125.385,68.57399999999998,125.301,68.841,125.215,69.091C119.903,68.198,117.177,69.341,113.819,72.631L113.446,72.997C111.316,75.085,110.15599999999999,75.699,107.749,75.551A7.298,7.298,0,0,1,101.539,71.614A12.044,12.044,0,0,1,100.369,68.73A9.563,9.563,0,0,1,100.108,67.47A1.508,1.508,0,0,0,97.111,67.798A12.27,12.27,0,0,0,97.453,69.483A14.945,14.945,0,0,0,98.914,73.074A10.28,10.28,0,0,0,107.561,78.514C111.00800000000001,78.725,112.893,77.728,115.57400000000001,75.1L115.94600000000001,74.735C118.72400000000002,72.013,120.55000000000001,71.27,124.97400000000002,72.062C134.449,73.758,132.204,88.82,121.78600000000002,88.41ZM77.97200000000001,109.08699999999999L77.97500000000001,43.88499999999999A8.596,8.596,0,0,0,77.79,42.28499999999999A10.52,10.52,0,0,0,76.512,38.93199999999999C74.672,35.852,71.351,34,66.424,34C61.49900000000001,34,58.175000000000004,35.85,56.327000000000005,38.93A10.39,10.39,0,0,0,55.229000000000006,41.498Q55.083000000000006,41.445,54.92600000000001,41.391999999999996A11.294,11.294,0,0,0,45.58000000000001,42.065A12.575,12.575,0,0,0,42.149000000000015,44.912L42.06800000000001,45.015A9.947,9.947,0,0,0,40.20300000000001,53.012C34.80600000000001,54.406,31.86600000000001,57.576,31.10300000000001,61.897A16.124,16.124,0,0,0,31.63300000000001,69.095C31.71700000000001,69.391,31.80200000000001,69.66499999999999,31.88500000000001,69.916C23.803000000000008,73.42699999999999,24.39200000000001,85.238,31.532000000000007,89.679C31.436000000000007,89.959,31.336000000000006,90.283,31.237000000000005,90.644A14.485,14.485,0,0,0,31.117000000000004,98.569C32.225,102.373,35.159000000000006,105.287,40.137,106.919A11.03,11.03,0,0,0,40.88,111.179A11.296,11.296,0,0,0,47.995000000000005,118.35900000000001A14.526,14.526,0,0,0,55.11900000000001,118.77900000000001L55.18900000000001,118.76700000000001C56.15700000000001,123.25200000000001,59.62700000000001,126.00000000000001,65.914,126.00000000000001C71.72200000000001,126.00000000000001,75.298,122.64200000000001,76.96600000000001,117.28400000000002A24.248,24.248,0,0,0,77.98500000000001,109.37100000000002C77.98000000000002,109.23900000000002,77.97500000000001,109.14400000000002,77.97200000000001,109.08700000000002ZM74.89200000000001,112.12199999999999A20.423,20.423,0,0,1,74.08300000000001,116.41499999999999C72.76800000000001,120.63999999999999,70.22000000000001,123.032,65.91300000000001,123.032C60.37600000000001,123.032,58.13300000000001,120.716,57.93400000000001,116.532A17.28,17.28,0,0,1,58.60000000000001,111.304C58.75000000000001,110.75,58.91000000000001,110.238,59.07000000000001,109.784C59.16400000000001,109.51700000000001,59.23400000000001,109.334,59.27000000000001,109.247A1.476,1.476,0,0,0,58.44000000000001,107.313A1.516,1.516,0,0,0,56.47700000000001,108.13A23.239,23.239,0,0,0,54.90600000000001,115.79899999999999Q54.76300000000001,115.82799999999999,54.58900000000001,115.859A11.58,11.58,0,0,1,48.96400000000001,115.54899999999999A8.32,8.32,0,0,1,43.70900000000001,110.154C42.35900000000001,106.547,43.50700000000001,103.53,46.50000000000001,101.425C49.138000000000005,99.571,52.763000000000005,98.877,54.80000000000001,99.679A19.02,19.02,0,0,0,64.48200000000001,101.122C68.45200000000001,100.427,70.70600000000002,97.579,70.43400000000001,92.778C70.174,88.14800000000001,67.38700000000001,85.83600000000001,63.25400000000001,85.578A18.158,18.158,0,0,0,56.85600000000001,86.519A1.478,1.478,0,0,0,55.95400000000001,88.421A1.514,1.514,0,0,0,57.88600000000001,89.30900000000001C57.94000000000001,89.28900000000002,58.06000000000001,89.24900000000001,58.23900000000001,89.19500000000001A16.46,16.46,0,0,1,59.27200000000001,88.92A13.41,13.41,0,0,1,63.06300000000001,88.54C65.77300000000001,88.709,67.254,89.938,67.42300000000002,92.94200000000001C67.61100000000002,96.25500000000001,66.41300000000001,97.77000000000001,63.954000000000015,98.2A16.254,16.254,0,0,1,55.921000000000014,96.923C52.844000000000015,95.712,48.16500000000001,96.608,44.74800000000001,99.01A10.803,10.803,0,0,0,40.72200000000001,103.98C36.906000000000006,102.64500000000001,34.81800000000001,100.507,34.016000000000005,97.751A11.682,11.682,0,0,1,34.147000000000006,91.421Q34.221000000000004,91.152,34.29800000000001,90.908A12.646,12.646,0,0,0,38.33500000000001,91.375A1.484,1.484,0,1,0,38.21500000000001,88.41C27.79500000000001,88.82,25.55100000000001,73.758,35.02600000000001,72.062C39.45000000000001,71.27,41.27600000000001,72.012,44.05400000000001,74.735L44.42600000000001,75.1C47.107000000000006,77.728,48.99200000000001,78.725,52.44000000000001,78.51299999999999A10.28,10.28,0,0,0,61.08600000000001,73.07399999999998A14.942,14.942,0,0,0,62.54700000000001,69.48299999999999A12.27,12.27,0,0,0,62.88900000000001,67.79799999999999A1.508,1.508,0,0,0,59.89300000000001,67.46999999999998A9.566,9.566,0,0,1,59.63100000000001,68.72999999999999A12.044,12.044,0,0,1,58.461000000000006,71.61399999999999A7.298,7.298,0,0,1,52.251000000000005,75.55099999999999C49.845000000000006,75.69899999999998,48.68300000000001,75.085,46.554,72.99699999999999L46.182,72.63199999999999C42.822,69.341,40.097,68.198,34.784000000000006,69.091A16.93,16.93,0,0,1,34.535000000000004,68.291A13.33,13.33,0,0,1,34.075,62.404999999999994C34.642,59.187,36.772000000000006,56.913,41.146,55.836999999999996A19.377,19.377,0,0,0,44.04,60.202999999999996A26.261,26.261,0,0,0,46.69,62.87199999999999C47.236999999999995,63.34899999999999,47.669999999999995,63.69199999999999,47.931,63.88199999999999A1.524,1.524,0,0,0,50.04,63.56999999999999A1.469,1.469,0,0,0,49.724,61.49499999999999A20.277,20.277,0,0,1,48.693,60.65199999999999A23.312,23.312,0,0,1,46.345,58.28899999999999C42.935,54.30999999999999,41.935,50.39899999999999,44.494,46.77899999999999A9.544,9.544,0,0,1,47.06,44.65099999999999A8.323,8.323,0,0,1,53.947,44.19899999999999A9.392,9.392,0,0,1,54.827000000000005,44.541999999999994A15.056,15.056,0,0,0,55.922000000000004,50.38799999999999C57.582,54.43199999999999,60.99,57.00599999999999,66.348,57.24599999999999A1.484,1.484,0,1,0,66.485,54.28099999999999C62.353,54.09599999999999,59.951,52.28199999999999,58.717,49.27599999999999A11.897,11.897,0,0,1,57.93,46.10399999999999A13.133,13.133,0,0,1,57.867,43.88799999999999A5.9,5.9,0,0,1,57.998,42.86099999999999A7.639,7.639,0,0,1,58.922999999999995,40.43899999999999C60.227,38.266999999999996,62.56099999999999,36.96799999999999,66.42399999999999,36.96799999999999C70.28699999999999,36.96799999999999,72.61599999999999,38.26699999999999,73.91399999999999,40.43699999999999A7.613,7.613,0,0,1,74.83099999999999,42.85699999999999A5.9,5.9,0,0,1,74.96,43.88499999999999V109.18299999999999L74.97099999999999,109.47399999999999A22.264,22.264,0,0,1,74.892,112.12199999999999Z" stroke-width="0" opacity="1" fill-opacity="1" stroke-opacity="1" transform="matrix(1.9,0,0,1.9,149,25)" style="-webkit-tap-highlight-color: rgba(0, 0, 0, 0); opacity: 1; fill-opacity: 1;"></path></svg>